<?xml version="1.0" encoding="utf-8" ?><svg xmlns="http://www.w3.org/2000/svg" xmlns:xlink="http://www.w3.org/1999/xlink" width="1024" height="1024" viewBox="0 0 1024 1024"><path fill="#0B0E14" d="M0 0L1024 0L1024 1024L0 1024L0 0Z"/><path fill="#2DD4BF" d="M511.831 257.902C530.24 268.681 549.107 280.416 567.435 291.424L729.869 388.741L729.87 630.97C716.39 639.859 701.853 648.607 688.088 657.123L579.677 723.607C567.324 717.533 546.316 703.683 533.845 696.248C500.219 676.272 466.775 655.99 433.518 635.405L433.772 598.406C440.671 593.993 448.024 589.949 455.033 585.616L532.457 537.938L532.383 354.1L657.509 429.422L657.574 543.25L657.729 591.723C630.796 607.321 604.659 625.635 577.367 640.792C563.822 632.944 550.397 624.893 537.094 616.641C547.402 608.981 566.332 598.237 577.97 591.14C588.854 584.504 606.53 572.948 617.403 567.435C617.092 529.858 617.109 492.279 617.454 454.702C605.095 446.648 587.473 436.57 574.512 428.923L574.835 560.804C559.315 570.605 543.709 580.267 528.017 589.79C513.467 598.909 498.809 607.855 484.046 616.625C490.949 621.409 503.083 628.205 510.457 632.581C524.785 641.063 539.06 649.633 553.281 658.292C561.642 663.327 570.661 668.397 578.763 673.747C589.103 668.225 603.143 658.687 613.573 652.3L686.534 607.718L686.456 413.686C648.451 390.961 610.563 368.039 572.795 344.923C538.509 324.55 504.371 303.93 470.383 283.064C481.92 275.097 499.181 265.839 511.831 257.902Z"/><path fill="#4729EC" d="M278.309 330.205C281.835 329.589 293.684 329.788 297.49 329.832L297.535 358.79C289.67 359.135 284.052 360.133 277.529 364.97C272.31 368.811 268.539 374.302 266.827 380.553C265.049 387.124 265.673 398.322 265.717 405.479C265.823 418.37 265.864 431.261 265.839 444.153C265.743 474.641 264.649 493.035 238.096 512.699C252.618 522.132 263.473 538.1 265.506 555.371C266.437 563.285 266.078 574.826 266.1 583.15L266.194 623.46C266.222 634.486 265.326 646.223 273.041 654.967C280.016 662.873 287.415 665.654 297.528 666.562L297.615 694.507C287.448 695.215 282.266 695.117 272.321 693.886C262.987 692.238 254.232 688.223 246.894 682.224C237.499 674.571 230.785 664.126 227.722 652.402C224.599 640.675 225.619 626.382 225.466 614.091C225.297 600.557 225.614 586.792 225.345 573.249C225.21 566.496 225.356 556.279 223.73 549.886C222.483 544.792 219.91 540.118 216.271 536.342C209.064 528.821 200.658 526.176 190.534 525.997L190.566 498.14C198.901 498.058 204.434 497.145 211.534 492.39C228.827 480.81 225.527 458.235 225.484 440.119L225.41 404.724C225.4 398.331 225.123 391.581 225.592 385.224C227.766 355.766 248.858 332.796 278.309 330.205Z"/><path fill="#2DD4BF" d="M368.375 426.085C391.839 412.744 420.121 394.798 442.971 380.258L484.16 404.765C477.441 409.427 468.037 414.058 462.344 418.219C445.277 428.35 428.114 439.037 411.117 449.368L411.142 500.014C395.524 509.799 379.847 519.488 364.111 529.082C355.694 534.251 344.716 541.427 336.172 545.917C336.519 584.674 336.632 623.433 336.512 662.191C323.618 655.343 307.904 645.004 294.93 637.338C294.483 599.017 294.888 559.827 294.97 521.438C301.178 516.905 313.73 509.731 320.72 505.451C336.547 495.661 352.456 486.003 368.445 476.478L368.375 426.085Z"/><path fill="#4729EC" d="M484.16 404.765C490.311 408.126 497.046 412.515 503.189 415.43C503.521 450.824 502.533 487.755 503.481 522.868C474.955 539.792 446.974 557.939 418.362 574.769C414.755 576.891 411.221 579.21 407.564 581.237L407.828 703.593C396.125 697.189 376.994 685.793 366.087 678.195L366.029 561.941C396.959 541.757 431.104 522.826 462.531 502.664C462.519 475.634 463.238 444.888 462.344 418.219C468.037 414.058 477.441 409.427 484.16 404.765Z"/><path fill="#4729EC" d="M442.726 299.937C444.629 300.114 498.526 332.971 503.358 336.242C502.985 351.41 503.353 368.084 503.389 383.362C497.413 380.462 489.137 375.183 483.293 371.684C469.857 363.475 456.343 355.393 442.755 347.439C437.624 350.445 432.532 353.54 427.49 356.694C397.985 375.149 367.997 392.866 338.626 411.526C338.82 419.78 338.732 428.433 338.774 436.72L338.946 463.311C324.247 471.501 309.606 481.421 294.837 489.847C294.328 475.609 294.589 460.175 294.584 445.836C294.504 426.893 294.548 407.95 294.716 389.008C344.548 360.2 393.346 329.391 442.726 299.937Z"/><path fill="#2DD4BF" d="M727.235 330.071C743.51 329.975 755.458 328.818 770.099 337.417C801.115 355.635 799.447 382.902 799.441 414.35L799.388 446.906C799.359 462.215 797.455 477.644 809.557 489.417C816.614 496.282 824.013 498.343 833.688 498.502C833.767 507.618 833.967 517.004 833.886 526.099L825.123 526.547C822.321 526.094 818.759 525.975 815.718 525.502C803.759 523.642 796.395 519.64 787.097 512.299C760.856 493.081 760.506 473.678 760.558 444.034L760.626 404.954C760.635 398.375 761.125 387.854 759.521 381.678C757.822 374.905 753.863 368.915 748.297 364.699C741.321 359.435 735.52 358.929 727.231 359.067C727.267 349.588 727.476 339.504 727.235 330.071Z"/><path fill="#4729EC" d="M727.052 666.04C735.125 665.684 741.787 664.533 748.446 659.674C762.301 649.563 760.576 633.299 760.52 618.395L760.447 580.968C760.414 551.192 760.686 531.558 787.097 512.299C796.395 519.64 803.759 523.642 815.718 525.502C818.759 525.975 822.321 526.094 825.123 526.547C817.052 530.467 811.59 532.032 805.931 539.825C798.368 550.239 799.42 560.081 799.306 572.29C799.232 585.992 799.25 599.695 799.36 613.397C799.471 637.168 801.449 658.832 782.823 677.597C765.625 694.923 749.403 694.439 727.409 694.539C727.21 685.041 727.091 675.541 727.052 666.04Z"/><path fill="#4729EC" d="M433.698 669.625C440.576 672.845 459.42 685.082 466.636 689.382C495.095 706.72 523.696 723.823 552.436 740.689C547.412 744.276 542.407 747.33 537.129 750.502C528.719 755.715 520.278 760.879 511.808 765.994C508.581 763.816 504.365 761.279 500.947 759.366C478.282 746.675 456.1 731.537 433.444 718.977C433.138 703.267 433.426 685.36 433.698 669.625Z"/></svg>